<svg width="1103" height="258" viewBox="0 0 1103 258" fill="none" xmlns="http://www.w3.org/2000/svg">
<path d="M818.5 258L522.752 64.5H1114.25L818.5 258Z" fill="#007AFF"/>
<path d="M818.5 258L522.752 64.5H1114.25L818.5 258Z" fill="black" fill-opacity="0.3"/>
<path d="M690 255L386.025 63.75H993.975L690 255Z" fill="#007AFF"/>
<path d="M690 255L386.025 63.75H993.975L690 255Z" fill="#007AFF"/>
<path d="M560.5 255L256.958 63.75H864.042L560.5 255Z" fill="#007AFF"/>
<path d="M560.5 255L256.958 63.75H864.042L560.5 255Z" fill="#30B0C7"/>
<path d="M426 255L122.025 63.75H729.975L426 255Z" fill="#007AFF"/>
<path d="M426 255L122.025 63.75H729.975L426 255Z" fill="#00C7BE"/>
<path d="M371 226L114.656 63.25H627.344L371 226Z" fill="#E5E5EA"/>
</svg>
